Coordinates
version=1
nRows=43
nColumns=12
inDegrees=yes

Units are S.I. units (second, meters, Newtons, ...)
Angles are in degrees

endheader
time	SC_y	SC_z	SC_x	AC_y	AC_z	AC_x	GH_y	GH_z	GH_yy	EL_x	PS_y
       0.0              -21.02         0.4215          75.25          47.31         -15.39          10.33          16.49         -0.142           7.81          22.05          156.3
  0.008898              -21.01         0.4265          75.24          47.31         -15.39          10.33          16.46        -0.1299          7.808          22.06          156.2
    0.0178              -21.01         0.4318          75.23          47.32         -15.39          10.33          16.43        -0.1171          7.805          22.07          156.2
    0.0267              -21.01         0.4374          75.22          47.32         -15.39          10.33           16.4        -0.1034          7.803          22.08          156.2
   0.03559              -21.01         0.4434          75.21          47.32         -15.39          10.33          16.37       -0.08886          7.801          22.09          156.2
   0.04449              -21.01         0.4499           75.2          47.32         -15.39          10.33          16.33       -0.07335          7.798           22.1          156.2
   0.05339              -21.01         0.4567          75.19          47.33         -15.39          10.33           16.3        -0.0568          7.795          22.11          156.1
   0.06229              -21.01          0.464          75.18          47.33         -15.39          10.32          16.26        -0.0391          7.792          22.12          156.1
   0.07119              -21.01         0.4719          75.16          47.33         -15.39          10.32          16.21       -0.02015          7.789          22.13          156.1
   0.08009              -21.01         0.4803          75.15          47.33         -15.39          10.32          16.17      0.0001802          7.785          22.15          156.1
   0.08898              -21.01         0.4893          75.13          47.34         -15.39          10.32          16.12        0.02202          7.781          22.16          156.0
   0.09788              -21.01         0.4991          75.12          47.34         -15.39          10.32          16.06        0.04552          7.777          22.18          156.0
    0.1068              -21.01         0.5096           75.1          47.35         -15.39          10.32          16.01        0.07085          7.773           22.2          156.0
    0.1157              -21.01         0.5209          75.08          47.35         -15.39          10.32          15.94        0.09822          7.768          22.22          155.9
    0.1246              -21.01         0.5331          75.06          47.36         -15.39          10.32          15.88         0.1278          7.763          22.24          155.9
    0.1335              -21.01         0.5464          75.04          47.36         -15.39          10.32          15.81         0.1599          7.757          22.26          155.9
    0.1424               -21.0         0.5609          75.02          47.37         -15.39          10.32          15.73         0.1949          7.751          22.28          155.8
    0.1513               -21.0         0.5766          74.99          47.37         -15.39          10.32          15.64         0.2329          7.745          22.31          155.8
    0.1602               -21.0         0.5938          74.96          47.38         -15.39          10.32          15.55         0.2744          7.737          22.34          155.7
    0.1691               -21.0         0.6126          74.93          47.39          -15.4          10.32          15.44         0.3199          7.729          22.37          155.6
     0.178               -21.0         0.6333           74.9           47.4          -15.4          10.32          15.33         0.3698          7.721           22.4          155.6
    0.1869               -21.0          0.656          74.86           47.4          -15.4          10.32          15.21         0.4247          7.711          22.44          155.5
    0.1958              -20.99         0.6812          74.82          47.41          -15.4          10.32          15.07         0.4854          7.701          22.48          155.4
    0.2047              -20.99          0.709          74.77          47.43          -15.4          10.32          14.92         0.5526          7.689          22.53          155.3
    0.2136              -20.99         0.7399          74.72          47.44          -15.4          10.32          14.75         0.6274          7.676          22.58          155.2
    0.2225              -20.99         0.7745          74.66          47.45          -15.4          10.32          14.56         0.7108          7.661          22.64          155.1
    0.2314              -20.98         0.8131           74.6          47.47          -15.4          10.32          14.35         0.8042          7.645           22.7          155.0
    0.2403              -20.98         0.8566          74.53          47.49          -15.4          10.31          14.11         0.9093          7.627          22.77          154.8
    0.2492              -20.98         0.9058          74.45           47.5          -15.4          10.31          13.84          1.028          7.606          22.86          154.7
    0.2581              -20.97         0.9616          74.35          47.53         -15.41          10.31          13.54          1.163          7.583          22.95          154.5
     0.267              -20.97          1.025          74.25          47.55         -15.41          10.31          13.19          1.317          7.556          23.06          154.3
    0.2759              -20.96          1.098          74.13          47.58         -15.41          10.31          12.79          1.493          7.525          23.18          154.1
    0.2848              -20.95          1.183          73.99          47.62         -15.41           10.3          12.33          1.697           7.49          23.32          153.8
    0.2936              -20.95          1.281          73.83          47.65         -15.42           10.3          11.79          1.934          7.448          23.48          153.5
    0.3025              -20.94          1.396          73.64           47.7         -15.42           10.3          11.17          2.211            7.4          23.67          153.1
    0.3114              -20.93          1.531          73.41          47.75         -15.42          10.29          10.43          2.538          7.343           23.9          152.7
    0.3203              -20.91          1.692          73.15          47.82         -15.43          10.29          9.551          2.927          7.276          24.17          152.1
    0.3292               -20.9          1.884          72.83           47.9         -15.44          10.29          8.499          3.392          7.195          24.49          151.5
    0.3381              -20.88          2.118          72.44          47.99         -15.44          10.28          7.226          3.955          7.097          24.88          150.8
     0.347              -20.86          2.402          71.97           48.1         -15.45          10.27           5.67          4.643          6.977          25.35          149.8
    0.3559              -20.83          2.754          71.39          48.24         -15.46          10.26          3.751          5.493          6.829          25.94          148.7
    0.3648               -20.8          3.192          70.66          48.42         -15.48          10.25          1.357          6.551          6.645          26.67          147.3
    0.3737              -20.75          3.744          69.75          48.64         -15.49          10.23         -1.658          7.885          6.413          27.59          145.5
